<svg xmlns="http://www.w3.org/2000/svg" viewBox="0 0 255 384" role="img" aria-label="Majico">
  <path fill="#f3722b" d="M146.3,382l102.3-93.3c4.7-4.3,6.3-11.1,4-17L147,1.8c-1.1-2.9-5.5-2.1-5.5,1v377.1c0,2.5,3,3.8,4.8,2.1Z"/>
  <path fill="#f3722b" d="M247,334.2c-1.6-4.2-7-5.4-10.3-2.4l-96,88c-7.3,6.7-18.4,6.7-25.7,0l-96-88c-3.3-3-8.6-1.8-10.3,2.4l-7.5,18.9c-2.9,7.3-1,15.6,4.8,20.9l108.9,99.9c7.3,6.7,18.4,6.7,25.7,0l108.9-99.9c5.8-5.3,7.7-13.6,4.8-20.9l-7.5-18.9Z"/>
  <path fill="#f3722b" d="M8.8,288.8l102.3,93.3c1.8,1.7,4.8.4,4.8-2.1V2.8c0-3.1-4.3-4-5.5-1L4.9,271.8c-2.3,5.9-.7,12.7,4,17Z"/>
</svg>
